<svg width="53" height="53" viewBox="0 0 53 53" fill="none" xmlns="http://www.w3.org/2000/svg">
<path d="M26.5 0C11.8645 -1.39404e-05 -1.39404e-05 11.8645 0 26.5C0.0102567 30.6357 0.988367 34.7117 2.85607 38.4017C2.85607 38.4017 4.38596 41.4611 7.03213 41.4528C9.09231 41.4463 10.3769 39.876 11.1944 38.6927C11.4269 38.3561 11.6349 38.0345 11.7959 37.8091C14.4893 34.0397 17.182 30.2698 19.875 26.5L26.5 35.775L30.7588 29.8131L26.5003 23.85L26.5 23.8505L20.8213 15.9C20.8213 15.9 20.4178 15.2376 19.875 15.2376C19.3322 15.2376 18.9287 15.9 18.9287 15.9L7.637 31.709L7.63563 31.7104L7.637 31.7085C7.46533 31.0884 7.32433 30.4603 7.21453 29.8263C7.1036 29.1834 7.0249 28.5352 6.97872 27.8844C6.94604 27.4236 6.92969 26.9619 6.92969 26.5C6.9297 25.8475 6.96233 25.1955 7.02747 24.5463C7.09262 23.897 7.1902 23.2514 7.31984 22.6119C7.44946 21.9725 7.61098 21.3399 7.8038 20.7165C7.99661 20.0932 8.22047 19.48 8.47454 18.879C8.72865 18.278 9.01266 17.6902 9.3255 17.1175C9.63829 16.545 9.97952 15.9884 10.3479 15.4499C10.7163 14.9113 11.1114 14.3916 11.5318 13.8925C11.9522 13.3935 12.3972 12.9158 12.8653 12.4612C13.3333 12.0066 13.8238 11.5757 14.3349 11.1701C14.846 10.7645 15.3771 10.3847 15.9261 10.0321C16.4752 9.67964 17.0415 9.35482 17.623 9.05889C18.2045 8.76294 18.8004 8.49625 19.4086 8.25983C20.0167 8.02337 20.6363 7.81747 21.265 7.64291C21.8937 7.46839 22.5307 7.32543 23.1737 7.21455C23.8167 7.10362 24.4648 7.02492 25.1157 6.97873C25.5764 6.94606 26.0381 6.92971 26.5 6.92971C27.1525 6.92971 27.8045 6.96234 28.4538 7.02749C29.103 7.09264 29.7485 7.19022 30.3879 7.31986C31.0274 7.44948 31.66 7.611 32.2834 7.80381C32.9067 7.99662 33.52 8.22048 34.121 8.47456C34.722 8.72867 35.3099 9.01268 35.8825 9.32552C36.4551 9.63831 37.0117 9.97954 37.5502 10.3479C38.0887 10.7163 38.6084 11.1115 39.1075 11.5318C39.6065 11.9522 40.0842 12.3972 40.5388 12.8653C40.9934 13.3334 41.4243 13.8238 41.8299 14.3349C42.2355 14.846 42.6152 15.3771 42.9677 15.9261C43.3203 16.4752 43.6452 17.0415 43.9411 17.623C44.2371 18.2045 44.5038 18.8004 44.7402 19.4086C44.9766 20.0167 45.1825 20.6363 45.357 21.265C45.5315 21.8937 45.6745 22.5307 45.7855 23.1737C45.8964 23.8167 45.975 24.4648 46.0211 25.1157C46.0538 25.5764 46.0702 26.0381 46.0702 26.5C46.0702 27.1525 46.0375 27.8046 45.9724 28.4538C45.9243 28.8564 45.8637 29.2575 45.7907 29.6564L48.267 33.1235C48.267 33.1235 48.7215 33.7691 49.1921 34.4923C49.3616 34.7529 49.5429 35.0168 49.7056 35.3109C49.8683 35.6049 49.9844 35.843 50.0534 36.0449C50.1465 36.3169 50.2226 36.5313 50.2751 36.7569C50.3277 36.9824 50.3496 37.1618 50.3724 37.358C50.4042 37.676 50.4072 37.8371 50.4063 37.8739C52.105 34.3223 52.9911 30.4369 53 26.5C53 19.4718 50.2081 12.7314 45.2384 7.76163C40.2687 2.79191 33.5283 -6.88034e-06 26.5 0Z" fill="#28D728"/>
<path d="M33.125 15.2375C32.5822 15.2376 32.1786 15.8999 32.1786 15.8999L27.446 22.5259L31.7048 28.4885L33.1253 26.5L36.8648 31.7354L36.8807 31.7343L41.812 38.6383L41.8306 38.6627C41.7117 38.8125 41.5914 38.9611 41.4681 39.1074C41.0478 39.6065 40.6028 40.0842 40.1347 40.5388C39.6666 40.9934 39.1761 41.4243 38.665 41.8299C38.154 42.2354 37.6229 42.6152 37.0739 42.9677C36.5249 43.3203 35.9585 43.6451 35.377 43.9411C34.7955 44.2371 34.1996 44.5037 33.5915 44.7402C32.9833 44.9766 32.3638 45.1824 31.7351 45.3569C31.1064 45.5315 30.4693 45.6745 29.8264 45.7854C29.1834 45.8963 28.5352 45.975 27.8844 46.0211C27.4237 46.0538 26.9619 46.0701 26.5 46.0701C25.8476 46.0701 25.1955 46.0375 24.5463 45.9724C23.897 45.9073 23.2515 45.8097 22.612 45.6801C21.9725 45.5505 21.3399 45.3889 20.7165 45.196C20.0932 45.0032 19.48 44.7794 18.879 44.5253C18.2781 44.2712 17.6902 43.9873 17.1176 43.6745C16.545 43.3616 15.9884 43.0204 15.4499 42.6519C14.9114 42.2835 14.3916 41.8884 13.8926 41.4681C13.3935 41.0477 12.9158 40.6027 12.4612 40.1346C12.3879 40.0526 12.1671 39.8013 12.0952 39.7181C11.948 39.9242 11.7158 40.2059 11.5685 40.412C11.4776 40.5392 11.3503 40.6478 11.2411 40.7899C11.1319 40.9321 10.9935 41.0605 10.862 41.2088C10.7305 41.3571 10.5868 41.4874 10.429 41.6331C10.2712 41.7787 10.0237 41.9398 9.83564 42.074C9.64755 42.2083 9.45271 42.2684 9.23035 42.3826C9.00799 42.4967 8.69789 42.6055 8.38418 42.6664C8.07047 42.7273 7.70969 42.7675 7.36807 42.7919C6.93353 42.7724 6.41749 42.7264 6.18051 42.6611C5.94352 42.5958 5.51023 42.4485 5.276 42.3298C5.39247 42.4848 5.74841 42.9419 5.85499 43.0637C10.8697 49.3269 18.4604 52.9877 26.5 53C33.8909 52.9863 40.9403 49.8867 45.9464 44.4494L46.3546 43.984C47.1028 43.1437 47.8234 42.2734 48.4588 41.3449L48.641 41.0611C48.641 41.0611 49.4737 39.5616 49.2011 38.1431C48.9285 36.7246 48.3806 36.0484 48.2536 35.8418C48.1266 35.6351 47.1644 34.2311 47.1644 34.2311L45.3481 31.6882L34.0716 15.8999C34.0716 15.8999 33.6678 15.2375 33.125 15.2375Z" fill="#136D13"/>
</svg>
